<svg width="16" height="18" viewBox="0 0 16 18" fill="none" xmlns="http://www.w3.org/2000/svg">
<path d="M1.81491 16H14.7204C14.9929 16.0001 15.2552 16.0963 15.4543 16.2693C15.6534 16.4423 15.7745 16.6791 15.793 16.9318C15.8116 17.1846 15.7263 17.4345 15.5543 17.6311C15.3824 17.8276 15.1366 17.9561 14.8667 17.9907L14.7204 18H1.81491C1.54242 17.9999 1.28013 17.9037 1.08103 17.7307C0.881922 17.5577 0.760852 17.3209 0.742279 17.0682C0.723707 16.8154 0.809017 16.5655 0.980971 16.3689C1.15293 16.1724 1.3987 16.0439 1.66864 16.0093L1.81491 16H14.7204H1.81491ZM8.12139 0.00933329L8.26766 0C8.52754 1.01905e-05 8.77863 0.0875237 8.97449 0.246356C9.17035 0.405189 9.29773 0.624595 9.33308 0.864L9.34312 1V11.2507L12.5767 8.24533C12.759 8.07583 13.0008 7.97288 13.258 7.95526C13.5151 7.93764 13.7705 8.00651 13.9776 8.14933L14.0981 8.24533C14.2804 8.4149 14.3911 8.63972 14.41 8.87883C14.429 9.11794 14.3549 9.35542 14.2013 9.548L14.0981 9.66L9.02765 14.3733C8.84555 14.5427 8.60414 14.6457 8.34731 14.6635C8.09048 14.6814 7.83528 14.613 7.62812 14.4707L7.50767 14.3733L2.43724 9.66C2.24481 9.48157 2.13217 9.24201 2.12196 8.9895C2.11175 8.73699 2.20472 8.49024 2.38219 8.29888C2.55966 8.10751 2.80847 7.98571 3.07858 7.95797C3.3487 7.93023 3.62009 7.9986 3.8382 8.14933L3.95865 8.24533L7.1922 11.2533V1C7.19221 0.75835 7.28633 0.524877 7.45715 0.342759C7.62796 0.160641 7.86392 0.0421977 8.12139 0.00933329L8.26766 0L8.12139 0.00933329Z" fill="black"/>
</svg>
