<svg width="21" height="18" viewBox="0 0 21 18" fill="none" xmlns="http://www.w3.org/2000/svg">
<path d="M11.5994 16.7355L11.5962 16.7385C11.2172 17.0882 10.6369 17.0879 10.2579 16.7332L10.2579 16.7331L10.2532 16.7287L10.1428 16.6267L10.141 16.6251C7.48582 14.1836 5.37544 12.2377 3.93204 10.4193C2.5036 8.61972 1.82853 7.06593 1.88253 5.42014C1.93257 3.98719 2.65771 2.62365 3.80061 1.8328L3.80116 1.83242C5.96031 0.336255 8.66538 1.00523 10.154 2.77597L10.9194 3.68652L11.6849 2.77597C13.1755 1.00273 15.8795 0.328624 18.0355 1.83095L18.0382 1.8328C19.1813 2.62381 19.9065 3.98774 19.9563 5.42102L19.9564 5.42179C20.0147 7.06613 19.3408 8.6191 17.9104 10.422C16.466 12.2425 14.3546 14.1923 11.7006 16.643L11.6998 16.6437L11.6963 16.6469L11.5994 16.7355Z" fill="#FF4052" stroke="black" stroke-width="2"/>
</svg>
