<svg width="21" height="18" viewBox="0 0 21 18" fill="none" xmlns="http://www.w3.org/2000/svg">
<path d="M18.5371 1.01048C15.8883 -0.82554 12.6175 0.0312675 10.8516 2.13249C9.08573 0.0312675 5.81487 -0.83574 3.16608 1.01048C1.76141 1.98968 0.878481 3.6421 0.818281 5.38631C0.677815 9.34395 4.12928 12.5162 9.39677 17.3816L9.4971 17.4734C10.2596 18.1772 11.4335 18.1772 12.1961 17.4632L12.3064 17.3612C17.5739 12.506 21.0153 9.33375 20.8849 5.37611C20.8247 3.6421 19.9418 1.98968 18.5371 1.01048ZM10.9519 15.8618L10.8516 15.9638L10.7513 15.8618C5.97541 11.4656 2.82494 8.55854 2.82494 5.61071C2.82494 3.5707 4.32994 2.04068 6.33661 2.04068C7.88174 2.04068 9.38673 3.05049 9.9185 4.4479H11.7947C12.3165 3.05049 13.8215 2.04068 15.3666 2.04068C17.3733 2.04068 18.8783 3.5707 18.8783 5.61071C18.8783 8.55854 15.7278 11.4656 10.9519 15.8618Z" fill="black"/>
</svg>
