<svg width="16" height="18" viewBox="0 0 16 18" fill="none" xmlns="http://www.w3.org/2000/svg">
<path d="M1.87464 16H14.784C15.0565 16.0001 15.3189 16.0963 15.5181 16.2693C15.7172 16.4423 15.8384 16.6791 15.8569 16.9318C15.8755 17.1846 15.7902 17.4345 15.6182 17.6311C15.4462 17.8276 15.2003 17.9561 14.9303 17.9907L14.784 18H1.87464C1.60208 17.9999 1.33971 17.9037 1.14055 17.7307C0.941382 17.5577 0.820276 17.3209 0.801698 17.0682C0.78312 16.8154 0.868455 16.5655 1.04046 16.3689C1.21247 16.1724 1.45832 16.0439 1.72834 16.0093L1.87464 16H14.784H1.87464ZM8.18301 0.00933329L8.32932 0C8.58928 1.01905e-05 8.84044 0.0875237 9.03636 0.246356C9.23228 0.405189 9.3597 0.624595 9.39505 0.864L9.40509 1V11.2507L12.6396 8.24533C12.822 8.07583 13.0639 7.97288 13.3211 7.95526C13.5783 7.93764 13.8338 8.00651 14.041 8.14933L14.1615 8.24533C14.3438 8.4149 14.4546 8.63972 14.4735 8.87883C14.4925 9.11794 14.4184 9.35542 14.2647 9.548L14.1615 9.66L9.08953 14.3733C8.90738 14.5427 8.6659 14.6457 8.40899 14.6635C8.15208 14.6814 7.89681 14.613 7.68959 14.4707L7.5691 14.3733L2.49716 9.66C2.30468 9.48157 2.192 9.24201 2.18179 8.9895C2.17157 8.73699 2.26458 8.49024 2.4421 8.29888C2.61962 8.10751 2.8685 7.98571 3.1387 7.95797C3.40889 7.93023 3.68037 7.9986 3.89854 8.14933L4.01903 8.24533L7.25354 11.2533V1C7.25355 0.75835 7.34769 0.524877 7.51856 0.342759C7.68943 0.160641 7.92546 0.0421977 8.18301 0.00933329L8.32932 0L8.18301 0.00933329Z" fill="#3D84B8"/>
</svg>
