<svg id="Capa_1" enable-background="new 0 0 512 512" height="512" viewBox="0 0 512 512" width="512" xmlns="http://www.w3.org/2000/svg"><g><g><path d="m256 7.495c-137.246 0-248.505 111.259-248.505 248.505s111.259 248.505 248.505 248.505 248.505-111.259 248.505-248.505-111.259-248.505-248.505-248.505zm-166.13 358.186c-20.803-31.45-32.918-69.142-32.918-109.681 0-109.911 89.137-199.048 199.048-199.048 40.539 0 78.231 12.115 109.681 32.918 5.743 3.805 6.532 11.935 1.658 16.809l-260.66 260.66c-4.874 4.874-13.003 4.085-16.809-1.658zm166.13 89.367c-40.539 0-78.231-12.115-109.681-32.918-5.743-3.805-6.532-11.935-1.658-16.809l260.66-260.66c4.874-4.874 13.004-4.085 16.809 1.658 20.803 31.45 32.918 69.142 32.918 109.681 0 109.911-89.137 199.048-199.048 199.048z" fill="#fe646f"/></g><g><path d="m350.92 26.271c79.479 41.457 133.74 124.622 133.74 220.471 0 137.246-111.259 248.505-248.505 248.505-33.617 0-65.687-6.682-94.93-18.786 34.326 17.917 73.367 28.045 114.775 28.045 137.246 0 248.505-111.259 248.505-248.505 0-103.63-63.429-192.447-153.585-229.73z" fill="#fd4755"/></g><g><path d="m317.505 397.563h-123.01c-9.844 0-17.823-7.98-17.823-17.823v-247.479c0-9.844 7.98-17.823 17.823-17.823h123.01c9.844 0 17.823 7.98 17.823 17.823v247.479c0 9.843-7.98 17.823-17.823 17.823z" fill="#d8ecfe"/></g><g><path d="m335.329 132.257v247.487c0 9.837-7.98 17.817-17.827 17.817h-19.355c9.848 0 17.827-7.98 17.827-17.817v-247.487c0-9.838-7.98-17.817-17.827-17.817h19.355c9.848-.001 17.827 7.979 17.827 17.817z" fill="#b3dafe"/></g><g><path d="m210.477 114.437 6.167 18.881c2.58 7.899 9.947 13.243 18.256 13.243h42.2c8.31 0 15.677-5.344 18.256-13.243l6.166-18.881z" fill="#596c76"/></g><g><path d="m301.522 114.439-6.162 18.876c-2.587 7.9-9.947 13.243-18.257 13.243h-20.484c8.309 0 15.67-5.343 18.257-13.243l6.162-18.876z" fill="#465a61"/></g><g><path d="m437.02 74.98c-48.353-48.352-112.64-74.98-181.02-74.98s-132.667 26.628-181.02 74.98c-48.352 48.353-74.98 112.64-74.98 181.02s26.628 132.667 74.98 181.02c48.353 48.352 112.64 74.98 181.02 74.98 47.963 0 94.726-13.345 135.233-38.594 39.392-24.553 71.412-59.322 92.599-100.548 1.89-3.679.441-8.195-3.239-10.086-3.678-1.891-8.194-.442-10.086 3.239-19.949 38.819-50.103 71.56-87.198 94.682-38.128 23.765-82.15 36.326-127.309 36.326-64.378 0-124.903-25.071-170.426-70.593s-70.593-106.048-70.593-170.426 25.071-124.903 70.593-170.426 106.048-70.593 170.426-70.593 124.903 25.071 170.426 70.593 70.593 106.048 70.593 170.426c0 26.983-4.424 53.471-13.149 78.729-1.351 3.91.724 8.175 4.634 9.526 3.914 1.352 8.175-.725 9.526-4.634 9.27-26.835 13.97-54.969 13.97-83.621 0-68.38-26.628-132.667-74.98-181.02z"/><path d="m354.283 109.142c-2.926 2.925-2.926 7.668-.001 10.593 2.926 2.925 7.669 2.926 10.593.001l7.763-7.762c3.928-3.929 5.862-9.354 5.304-14.885-.555-5.508-3.516-10.415-8.125-13.463-33.785-22.351-73.142-34.165-113.815-34.165-.003 0 .002 0-.002 0-55.157 0-107.026 21.489-146.038 60.502-39.015 39.015-60.502 90.88-60.501 146.041.001 40.673 11.815 80.029 34.165 113.813 3.049 4.608 7.956 7.569 13.463 8.125.626.063 1.25.094 1.873.094 4.867 0 9.528-1.915 13.013-5.398l43.244-43.245c2.925-2.926 2.925-7.668 0-10.594-2.926-2.924-7.668-2.924-10.594 0l-43.244 43.245c-1.008 1.006-2.183 1.055-2.789.993-.596-.061-1.709-.333-2.472-1.484-20.723-31.326-31.677-67.823-31.678-105.548-.001-51.159 19.927-99.262 56.112-135.448 36.186-36.186 84.288-56.113 135.447-56.113 37.725 0 74.222 10.954 105.549 31.677 1.152.762 1.425 1.877 1.485 2.473.061.609.015 1.783-.991 2.788z"/><path d="m142.183 428.374c33.785 22.351 73.142 34.165 113.815 34.165h.002c55.157 0 107.026-21.488 146.038-60.502 39.015-39.015 60.501-90.88 60.5-146.041-.001-40.673-11.815-80.029-34.165-113.813-3.049-4.608-7.956-7.569-13.463-8.125-5.519-.546-10.955 1.376-14.885 5.305l-45.678 45.679c-2.925 2.926-2.925 7.668 0 10.594 2.926 2.924 7.668 2.922 10.594 0l45.678-45.679c1.008-1.008 2.179-1.058 2.789-.993.596.061 1.709.333 2.472 1.484 20.723 31.326 31.677 67.823 31.678 105.548.001 51.159-19.927 99.262-56.112 135.448-36.186 36.186-84.288 56.114-135.447 56.114-37.725 0-74.222-10.954-105.549-31.678-1.152-.762-1.425-1.877-1.485-2.472-.061-.61-.015-1.783.991-2.788l7.76-7.759c2.926-2.925 2.926-7.668.001-10.593-2.926-2.925-7.669-2.926-10.593-.001l-7.761 7.76c-3.928 3.929-5.862 9.354-5.304 14.884.555 5.507 3.516 10.414 8.124 13.463z"/><path d="m242.923 355.801c-4.137 0-7.49 3.353-7.49 7.49s3.353 7.491 7.49 7.491h26.154c4.137 0 7.49-3.353 7.49-7.491 0-4.137-3.353-7.49-7.49-7.49z"/><path d="m176.672 213.189c-4.137 0-7.491 3.353-7.491 7.49v159.06c0 13.958 11.356 25.314 25.314 25.314h123.01c13.958 0 25.314-11.356 25.314-25.314v-247.479c0-13.958-11.356-25.314-25.314-25.314h-123.01c-13.958 0-25.314 11.356-25.314 25.314v53.919c0 4.137 3.353 7.49 7.491 7.49 4.137 0 7.49-3.353 7.49-7.49v-53.919c0-5.698 4.635-10.333 10.333-10.333h10.549l4.479 13.716c3.596 11.01 13.795 18.408 25.378 18.408h42.198c11.583 0 21.782-7.398 25.378-18.408l4.479-13.716h10.549c5.698 0 10.333 4.635 10.333 10.333v247.48c0 5.698-4.635 10.333-10.333 10.333h-123.01c-5.698 0-10.333-4.635-10.333-10.333v-159.06c0-4.138-3.353-7.491-7.49-7.491zm111.564-82.196c-1.577 4.832-6.053 8.078-11.136 8.078h-42.198c-5.083 0-9.559-3.246-11.136-8.078l-2.961-9.066h70.394z"/><path d="m235.47 234.238c-3.639-1.972-8.185-.623-10.156 3.013-2.749 5.07-4.203 10.814-4.203 16.613 0 19.237 15.651 34.888 34.888 34.888s34.888-15.651 34.888-34.888c0-5.428-1.214-10.631-3.608-15.467-1.835-3.707-6.326-5.224-10.036-3.39-3.708 1.835-5.226 6.329-3.39 10.036 1.362 2.751 2.053 5.719 2.053 8.821 0 10.977-8.93 19.907-19.907 19.907s-19.907-8.93-19.907-19.907c0-3.312.827-6.586 2.391-9.469 1.972-3.638.623-8.185-3.013-10.157z"/><path d="m263.49 248.885v-18.146c0-4.137-3.353-7.49-7.49-7.49s-7.49 3.353-7.49 7.49v18.146c0 4.137 3.353 7.49 7.49 7.49s7.49-3.353 7.49-7.49z"/></g></g></svg>