<svg xmlns="http://www.w3.org/2000/svg" viewBox="0 0 64 64"><g data-name="Arrow"><path fill="#222" d="M41,59H23A18,18,0,0,1,5,41V23A18,18,0,0,1,23,5H41A18,18,0,0,1,59,23V41A18,18,0,0,1,41,59ZM23,9A14,14,0,0,0,9,23V41A14,14,0,0,0,23,55H41A14,14,0,0,0,55,41V23A14,14,0,0,0,41,9Z"/><path fill="#222" d="M32,45.74a2,2,0,0,1-2-2V20.26a2,2,0,0,1,4,0V43.74A2,2,0,0,1,32,45.74Z"/><path fill="#222" d="M20.79,31.67a2,2,0,0,1-1.29-3.53l11.21-9.41a2,2,0,1,1,2.58,3.06L22.07,31.2A2,2,0,0,1,20.79,31.67Z"/><path fill="#222" d="M43.21,31.67a2,2,0,0,1-1.28-.47L30.71,21.79a2,2,0,0,1,2.58-3.06L44.5,28.14a2,2,0,0,1-1.29,3.53Z"/></g></svg>