<svg width="179" height="177" viewBox="0 0 179 177" fill="none" xmlns="http://www.w3.org/2000/svg">
<path d="M16.1084 152.465C25.0049 152.465 32.2169 148.309 32.2169 143.183C32.2169 138.057 25.0049 133.902 16.1084 133.902C7.21199 133.902 0 138.057 0 143.183C0 148.309 7.21199 152.465 16.1084 152.465Z" fill="#E0E0E0"/>
<path d="M82.6072 122.86L38.2384 148.427L5.97693 129.701L50.3507 104.129L82.6072 122.86Z" fill="#E0E0E0"/>
<path d="M154.924 175.367L45.8395 112.511C45.6109 112.382 45.4207 112.194 45.2884 111.968C45.1561 111.741 45.0864 111.484 45.0864 111.221C45.0864 110.959 45.1561 110.702 45.2884 110.475C45.4207 110.248 45.6109 110.061 45.8395 109.931L63.4533 99.7899C64.171 99.3746 64.9858 99.1559 65.8154 99.1559C66.6449 99.1559 67.4598 99.3746 68.1774 99.7899L177.257 162.646C177.485 162.776 177.674 162.963 177.805 163.189C177.937 163.415 178.006 163.672 178.006 163.933C178.006 164.195 177.937 164.452 177.805 164.678C177.674 164.904 177.485 165.091 177.257 165.221L159.648 175.367C158.931 175.783 158.116 176.001 157.286 176.001C156.457 176.001 155.642 175.783 154.924 175.367V175.367Z" fill="#E0E0E0"/>
<path d="M162.327 98.406L148.185 90.1474L156.608 101.702L162.327 98.406Z" fill="#BA68C8"/>
<path opacity="0.6" d="M162.327 98.406L148.185 90.1474L156.608 101.702L162.327 98.406Z" fill="black"/>
<path d="M153.924 128.994L71.1782 81.3106C70.8227 81.1058 70.5275 80.8111 70.3224 80.4562C70.1172 80.1014 70.0093 79.6989 70.0095 79.2892V22.9075C70.0083 22.4981 70.1153 22.0956 70.3198 21.7406C70.5242 21.3856 70.8188 21.0907 71.1739 20.8857C71.529 20.6807 71.932 20.5727 72.3423 20.5728C72.7525 20.5729 73.1555 20.681 73.5105 20.8861L156.261 68.5842C156.616 68.7882 156.911 69.082 157.116 69.436C157.322 69.79 157.43 70.1917 157.43 70.6007V126.972C157.43 127.382 157.322 127.784 157.117 128.139C156.912 128.494 156.617 128.789 156.262 128.994C155.906 129.198 155.503 129.306 155.093 129.306C154.683 129.306 154.279 129.199 153.924 128.994V128.994Z" fill="#E0E0E0"/>
<path d="M156.608 101.698L162.327 98.4011V165.157C162.328 165.758 162.169 166.349 161.868 166.87C161.566 167.391 161.132 167.823 160.609 168.122L154.959 171.384L156.608 101.698Z" fill="#3D84B8"/>
<path opacity="0.3" d="M156.608 101.698L162.327 98.4011V165.157C162.328 165.758 162.169 166.349 161.868 166.87C161.566 167.391 161.132 167.823 160.609 168.122L154.959 171.384L156.608 101.698Z" fill="black"/>
<path d="M150.17 131.099L67.4148 83.4111C67.061 83.206 66.7673 82.9119 66.563 82.558C66.3588 82.2041 66.2513 81.803 66.2511 81.3946V25.0129C66.2508 24.6039 66.3584 24.202 66.5632 23.8477C66.768 23.4934 67.0627 23.1992 67.4177 22.9948C67.7726 22.7904 68.1753 22.6829 68.5851 22.6832C68.9949 22.6835 69.3974 22.7915 69.7521 22.9965L152.503 70.6748C152.858 70.88 153.153 71.1748 153.358 71.5295C153.563 71.8843 153.671 72.2866 153.671 72.6962V129.083C153.67 129.491 153.562 129.892 153.357 130.246C153.151 130.599 152.857 130.893 152.502 131.097C152.148 131.301 151.746 131.409 151.337 131.409C150.928 131.409 150.525 131.303 150.17 131.099V131.099Z" fill="#EBEBEB"/>
<path d="M146.412 133.328L63.6662 85.645C63.3111 85.4409 63.0161 85.1471 62.811 84.7932C62.6058 84.4392 62.4977 84.0375 62.4976 83.6285V27.2221C62.4979 26.8133 62.6058 26.4117 62.8106 26.0576C63.0154 25.7035 63.3099 25.4093 63.6644 25.2046C64.019 24.9999 64.4213 24.8917 64.831 24.8911C65.2406 24.8904 65.6433 24.9972 65.9985 25.2007L148.749 72.884C149.104 73.0892 149.399 73.384 149.604 73.7387C149.81 74.0935 149.918 74.4958 149.918 74.9054V131.292C149.921 131.703 149.815 132.107 149.611 132.464C149.407 132.821 149.112 133.118 148.756 133.324C148.4 133.531 147.996 133.64 147.585 133.641C147.173 133.641 146.768 133.534 146.412 133.328V133.328Z" fill="#FAFAFA"/>
<path d="M50.8508 26.4709V109.358C50.8497 110.535 51.1595 111.692 51.7489 112.711C52.3383 113.731 53.1865 114.577 54.2081 115.165L151.745 171.384C152.238 171.668 152.798 171.817 153.367 171.816C153.936 171.816 154.496 171.666 154.988 171.381C155.481 171.097 155.89 170.688 156.175 170.195C156.459 169.703 156.608 169.145 156.608 168.577V101.698L105.158 72.0438L96.2842 51.5876C94.624 47.7658 91.7769 44.5778 88.1631 42.4938L55.6046 23.7131C55.1214 23.4347 54.5732 23.2885 54.0153 23.2893C53.4574 23.2901 52.9096 23.4379 52.4273 23.7177C51.945 23.9975 51.5452 24.3995 51.2684 24.8829C50.9915 25.3663 50.8475 25.9141 50.8508 26.4709V26.4709Z" fill="#3D84B8"/>
<path opacity="0.2" d="M50.8508 26.4709V109.358C50.8497 110.535 51.1595 111.692 51.7489 112.711C52.3383 113.731 53.1865 114.577 54.2081 115.165L151.745 171.384C152.238 171.668 152.798 171.817 153.367 171.816C153.936 171.816 154.496 171.666 154.988 171.381C155.481 171.097 155.89 170.688 156.175 170.195C156.459 169.703 156.608 169.145 156.608 168.577V101.698L105.158 72.0438L96.2842 51.5876C94.624 47.7658 91.7769 44.5778 88.1631 42.4938L55.6046 23.7131C55.1214 23.4347 54.5732 23.2885 54.0153 23.2893C53.4574 23.2901 52.9096 23.4379 52.4273 23.7177C51.945 23.9975 51.5452 24.3995 51.2684 24.8829C50.9915 25.3663 50.8475 25.9141 50.8508 26.4709V26.4709Z" fill="#3D84B8"/>
<path d="M128.159 116.9C127.887 116.742 127.615 116.604 127.347 116.48C127.129 110.129 122.683 102.592 117.221 99.4488C115.384 98.3862 113.66 97.9661 112.175 98.0897C110.095 91.3583 105.316 84.7455 99.7505 81.5281C92.6495 77.4358 86.8261 80.3864 86.2616 88.0766C85.92 87.8394 85.5733 87.617 85.2267 87.4143C79.8341 84.3106 75.4666 86.8262 75.4666 93.0387C75.4666 99.2511 79.8341 106.803 85.2267 109.912L128.159 134.653C132.413 137.124 135.86 135.117 135.86 130.205C135.86 125.292 132.413 119.351 128.159 116.9Z" fill="#3D84B8"/>
<path opacity="0.4" d="M128.159 116.9C127.887 116.742 127.615 116.604 127.347 116.48C127.129 110.129 122.683 102.592 117.221 99.4488C115.384 98.3862 113.66 97.9661 112.175 98.0897C110.095 91.3583 105.316 84.7455 99.7505 81.5281C92.6495 77.4358 86.8261 80.3864 86.2616 88.0766C85.92 87.8394 85.5733 87.617 85.2267 87.4143C79.8341 84.3106 75.4666 86.8262 75.4666 93.0387C75.4666 99.2511 79.8341 106.803 85.2267 109.912L128.159 134.653C132.413 137.124 135.86 135.117 135.86 130.205C135.86 125.292 132.413 119.351 128.159 116.9Z" fill="#3D84B8"/>
<path d="M91.5799 116.347L101.692 134.752L112.507 128.218L108.228 125.806V107.589L96.715 100.961V119.332L91.5799 116.347Z" fill="white"/>
<path d="M62.4629 1.34765e-06C51.6835 0.00294963 41.1848 3.42996 32.4869 9.78484C23.789 16.1397 17.3433 25.0926 14.0831 35.3473L9.97306 32.9997C9.85245 32.9308 9.71633 32.8936 9.5774 32.8915C9.43846 32.8893 9.30126 32.9224 9.1786 32.9876C9.05595 33.0527 8.95184 33.1479 8.87601 33.2641C8.80018 33.3803 8.75511 33.5138 8.74499 33.6521C8.00174 41.5725 9.14713 49.5561 12.0875 56.95C13.5332 60.6184 15.4885 64.0656 17.8961 67.1905C17.9736 67.2876 18.0753 67.3626 18.1911 67.4079C18.3069 67.4533 18.4326 67.4674 18.5556 67.4489C18.6786 67.4303 18.7945 67.3798 18.8917 67.3023C18.9889 67.2249 19.0639 67.1232 19.1093 67.0076C20.8952 62.5409 23.3568 58.3739 26.4083 54.6519C28.3901 52.2079 30.6168 49.9722 33.0537 47.9798C33.1902 47.8687 33.2976 47.7261 33.3665 47.5642C33.4353 47.4024 33.4637 47.2263 33.4491 47.0511C33.4344 46.8759 33.3773 46.7069 33.2825 46.5587C33.1877 46.4105 33.0582 46.2876 32.9052 46.2006L27.9929 43.3785C30.6113 33.9353 36.3341 25.6446 44.242 19.8385C52.1498 14.0323 61.7836 11.0477 71.5956 11.3642C81.4077 11.6807 90.8283 15.2798 98.344 21.5835C105.86 27.8871 111.034 36.5292 113.036 46.1215C111.899 33.5196 106.078 21.7985 96.7191 13.2634C87.3602 4.7284 75.1404 -0.00291526 62.4629 1.34765e-06V1.34765e-06Z" fill="#99C5E0"/>
<path opacity="0.4" d="M62.4629 1.34765e-06C51.6835 0.00294963 41.1848 3.42996 32.4869 9.78484C23.789 16.1397 17.3433 25.0926 14.0831 35.3473L9.97306 32.9997C9.85245 32.9308 9.71633 32.8936 9.5774 32.8915C9.43846 32.8893 9.30126 32.9224 9.1786 32.9876C9.05595 33.0527 8.95184 33.1479 8.87601 33.2641C8.80018 33.3803 8.75511 33.5138 8.74499 33.6521C8.00174 41.5725 9.14713 49.5561 12.0875 56.95C13.5332 60.6184 15.4885 64.0656 17.8961 67.1905C17.9736 67.2876 18.0753 67.3626 18.1911 67.4079C18.3069 67.4533 18.4326 67.4674 18.5556 67.4489C18.6786 67.4303 18.7945 67.3798 18.8917 67.3023C18.9889 67.2249 19.0639 67.1232 19.1093 67.0076C20.8952 62.5409 23.3568 58.3739 26.4083 54.6519C28.3901 52.2079 30.6168 49.9722 33.0537 47.9798C33.1902 47.8687 33.2976 47.7261 33.3665 47.5642C33.4353 47.4024 33.4637 47.2263 33.4491 47.0511C33.4344 46.8759 33.3773 46.7069 33.2825 46.5587C33.1877 46.4105 33.0582 46.2876 32.9052 46.2006L27.9929 43.3785C30.6113 33.9353 36.3341 25.6446 44.242 19.8385C52.1498 14.0323 61.7836 11.0477 71.5956 11.3642C81.4077 11.6807 90.8283 15.2798 98.344 21.5835C105.86 27.8871 111.034 36.5292 113.036 46.1215C111.899 33.5196 106.078 21.7985 96.7191 13.2634C87.3602 4.7284 75.1404 -0.00291526 62.4629 1.34765e-06V1.34765e-06Z" fill="#99C5E0"/>
<path d="M12.4243 122.816L33.9451 135.275V141.864L12.4243 129.404V122.816Z" fill="#455A64"/>
<path d="M45.5374 116.544V128.796L33.9451 135.275V141.864L67.7515 122.93V103.432L45.5374 116.544Z" fill="#263238"/>
<path d="M33.9451 135.275L45.5374 128.796L24.0215 116.337L12.4243 122.816L33.9451 135.275Z" fill="#37474F"/>
<path d="M45.5374 128.796V116.544L24.0215 104.085V116.337L45.5374 128.796Z" fill="#455A64"/>
<path d="M45.5374 116.544L24.0215 104.085L46.2307 90.9728L67.7515 103.432L45.5374 116.544Z" fill="#37474F"/>
<path d="M51.6331 58.7836C51.6331 58.7836 46.3346 66.1971 49.484 68.7671C52.6334 71.3371 59.5413 69.2613 59.8186 68.0356C60.0959 66.8099 51.6331 58.7836 51.6331 58.7836Z" fill="#263238"/>
<path d="M27.9633 123.671L20.169 134.01L22.3528 135.715C22.3528 135.715 25.4675 135.063 26.5767 130.946C27.2211 128.559 27.6845 126.127 27.9633 123.671Z" fill="#FFA8A7"/>
<path d="M28.6664 122.949C28.6664 122.949 30.8304 124.926 29.8746 126.661C28.9189 128.396 27.2601 129.824 27.2105 132.132C27.161 134.44 26.0023 138.557 23.4372 139.21C20.8721 139.862 18.3615 138.967 18.4111 138.058C18.4606 137.149 20.169 133.991 20.169 133.991C20.169 133.991 22.5261 135.444 24.2642 134.04C26.0023 132.636 26.4034 126.711 26.4034 126.711L28.6664 122.949Z" fill="#BA68C8"/>
<path opacity="0.2" d="M28.6664 122.949C28.6664 122.949 30.8304 124.926 29.8746 126.661C28.9189 128.396 27.2601 129.824 27.2105 132.132C27.161 134.44 26.0023 138.557 23.4372 139.21C20.8721 139.862 18.3615 138.967 18.4111 138.058C18.4606 137.149 20.169 133.991 20.169 133.991C20.169 133.991 22.5261 135.444 24.2642 134.04C26.0023 132.636 26.4034 126.711 26.4034 126.711L28.6664 122.949Z" fill="black"/>
<path d="M41.9572 90.958C41.9572 90.958 24.596 98.2923 23.1896 99.0139C21.7833 99.7355 19.3173 100.991 19.5649 106.64C19.8125 112.289 21.2336 126.281 21.2336 126.281L30.7511 107.994L55.3322 96.3154L41.9572 90.958Z" fill="#BA68C8"/>
<path opacity="0.5" d="M41.9572 90.958C41.9572 90.958 24.596 98.2923 23.1896 99.0139C21.7833 99.7355 19.3173 100.991 19.5649 106.64C19.8125 112.289 21.2336 126.281 21.2336 126.281L30.7511 107.994L55.3322 96.3154L41.9572 90.958Z" fill="black"/>
<path d="M20.5355 119.04C20.9019 123.033 21.2337 126.281 21.2337 126.281L30.7512 107.994L48.2758 99.6663L44.3144 96.5576C38.694 99.3796 30.5581 103.457 28.1267 104.698C25.0367 106.279 24.081 110.757 21.4169 116.969C21.1346 117.627 20.8375 118.323 20.5355 119.04Z" fill="#BA68C8"/>
<path opacity="0.7" d="M20.5355 119.04C20.9019 123.033 21.2337 126.281 21.2337 126.281L30.7512 107.994L48.2758 99.6663L44.3144 96.5576C38.694 99.3796 30.5581 103.457 28.1267 104.698C25.0367 106.279 24.081 110.757 21.4169 116.969C21.1346 117.627 20.8375 118.323 20.5355 119.04Z" fill="black"/>
<path d="M43.3982 94.6943L45.1908 97.4027L43.7844 97.6103L43.3982 94.6943Z" fill="#BA68C8"/>
<path opacity="0.7" d="M43.3982 94.6943L45.1908 97.4027L43.7844 97.6103L43.3982 94.6943Z" fill="black"/>
<path d="M20.273 138.078C20.273 138.078 20.5206 138.493 20.5206 140.588C20.5206 142.684 19.7035 143.094 18.6488 143.47C17.594 143.845 14.5387 146.065 13.6969 147.043C12.8551 148.022 9.45809 149.02 6.10072 148.437C2.74335 147.854 2.05009 145.644 3.63964 144.201C5.22919 142.758 9.85424 140.247 9.85424 140.247L20.273 138.078Z" fill="#BA68C8"/>
<path d="M60.4822 95.2726L53.0148 93.5527C53.0148 93.5527 32.2714 103.931 29.1814 105.513C26.0914 107.095 25.1209 111.582 22.4568 117.8C20.476 122.475 17.8367 128.89 16.1085 132.745C16.1085 132.745 17.3365 135.997 21.2287 135.177C22.5459 132.305 24.8733 129.74 28.2604 125.173C30.4337 122.353 31.9769 119.1 32.7864 115.635C32.9141 115.017 33.2145 114.449 33.6527 113.995C34.0909 113.541 34.649 113.22 35.2623 113.07C38.684 112.239 45.6612 110.436 53.0296 107.9C63.4137 104.342 60.4822 95.2726 60.4822 95.2726Z" fill="#BA68C8"/>
<path opacity="0.5" d="M60.4822 95.2726L53.0148 93.5527C53.0148 93.5527 32.2714 103.931 29.1814 105.513C26.0914 107.095 25.1209 111.582 22.4568 117.8C20.476 122.475 17.8367 128.89 16.1085 132.745C16.1085 132.745 17.3365 135.997 21.2287 135.177C22.5459 132.305 24.8733 129.74 28.2604 125.173C30.4337 122.353 31.9769 119.1 32.7864 115.635C32.9141 115.017 33.2145 114.449 33.6527 113.995C34.0909 113.541 34.649 113.22 35.2623 113.07C38.684 112.239 45.6612 110.436 53.0296 107.9C63.4137 104.342 60.4822 95.2726 60.4822 95.2726Z" fill="black"/>
<path d="M16.1085 132.745C15.539 134.015 15.0686 135.004 14.7467 135.567C13.4444 137.826 9.64627 140.272 8.30927 141.424C6.97226 142.575 6.69001 143.02 7.96759 143.999C11.2012 146.47 14.0039 143.771 15.8163 142.022C17.0279 140.913 18.3561 139.939 19.7778 139.116C19.8796 139.056 19.9667 138.975 20.0327 138.877C20.0987 138.78 20.1419 138.669 20.1591 138.552C20.3598 137.381 20.7145 136.241 21.2138 135.162V135.162C17.3365 135.997 16.1085 132.745 16.1085 132.745Z" fill="#FFA8A7"/>
<path d="M52.5543 102.365L39.4912 109.892L17.7822 97.3582L30.8403 89.6779L52.5543 102.365Z" fill="#37474F"/>
<path d="M40.8975 100.225L36.0001 97.4027L39.0703 95.6334L43.9677 98.4554L40.8975 100.225Z" fill="#263238"/>
<path d="M38.9366 108.009L45.5374 104.134L32.6378 96.3401L38.9366 108.009Z" fill="#263238"/>
<path d="M39.3228 84.7603L34.0986 87.2315C32.5381 87.6256 30.9993 88.1007 29.4884 88.6548C29.4884 88.6548 25.8537 90.1375 25.6854 91.126C25.517 92.1145 28.4138 94.4423 30.9541 93.3056C31.6229 92.9524 32.338 92.6945 33.0785 92.5395C34.6223 92.39 36.0812 91.7647 37.2529 90.7504L41.4769 89.5939C41.4769 89.5939 43.6458 85.388 39.3228 84.7603Z" fill="#FFA8A7"/>
<path d="M35.9407 92.0354C35.3365 92.6779 33.6133 94.3138 33.2369 94.7833C32.8606 95.2528 31.9693 94.0419 33.5291 92.238C34.8772 91.7435 36.1451 91.0541 37.2925 90.1919C36.8903 90.8403 36.4383 91.4567 35.9407 92.0354V92.0354Z" fill="#FFA8A7"/>
<path d="M50.0139 66.632C48.8136 66.4408 47.5843 66.6811 46.545 67.3102C45.5057 67.9393 44.7239 68.9162 44.3391 70.0669C43.7852 71.7263 43.4279 73.4448 43.2744 75.1871C42.8238 80.5594 42.7 83.2431 42.7 83.2431L37.2925 85.7142C37.2925 85.7142 40.2141 85.8575 40.0161 89.9695L46.7457 88.2743L50.0139 66.632Z" fill="#BA68C8"/>
<path opacity="0.3" d="M50.0139 66.632C48.8136 66.4408 47.5843 66.6811 46.545 67.3102C45.5057 67.9393 44.7239 68.9162 44.3391 70.0669C43.7852 71.7263 43.4279 73.4448 43.2744 75.1871C42.8238 80.5594 42.7 83.2431 42.7 83.2431L37.2925 85.7142C37.2925 85.7142 40.1844 85.8575 40.0161 89.9695L46.7457 88.2743L50.0139 66.632Z" fill="white"/>
<path d="M42.7 83.2431C43.3071 83.4319 43.8559 83.7721 44.2945 84.2315C44.2945 84.2315 43.6409 82.9959 42.7297 82.6154L42.7 83.2431Z" fill="#BA68C8"/>
<path opacity="0.1" d="M42.7 83.2431C43.3071 83.4319 43.8559 83.7721 44.2945 84.2315C44.2945 84.2315 43.6409 82.9959 42.7297 82.6154L42.7 83.2431Z" fill="white"/>
<path d="M47.6469 54.4394C47.6469 54.4394 44.3094 53.4509 45.5127 49.6948C46.716 45.9386 55.2283 44.3225 61.636 49.6948C61.636 49.6948 66.1323 48.9979 66.1323 55.2697C66.1323 61.5414 63.6167 64.3931 67.4891 66.029C67.4891 66.029 65.1271 68.258 63.2156 66.029C63.2156 66.029 62.8145 70.9219 55.5699 69.2168L47.6469 54.4394Z" fill="#263238"/>
<path d="M58.541 68.7671L62.3342 70.3783V81.4737C61.1464 84.3159 60.503 87.3552 60.4376 90.4341V95.9299C60.4376 95.9299 52.683 98.6877 46.6714 95.7026C43.7597 94.2594 41.9572 90.958 41.9572 90.958C41.9572 90.958 45.1611 89.0799 45.1611 86.7817C45.0991 84.9845 44.8854 83.1956 44.5223 81.4342C43.8175 80.7407 43.2824 79.8943 42.9587 78.9608C42.6349 78.0274 42.5311 77.032 42.6554 76.052C43.0813 72.3898 49.9941 66.632 49.9941 66.632L52.5691 66.9829L58.541 68.7671Z" fill="#3D84B8"/>
<path d="M58.541 68.7621L52.5889 66.9829V59.7919H58.541V68.7621Z" fill="#FFA8A7"/>
<path d="M52.5889 66.9829C53.8019 66.5304 54.9102 65.8366 55.8465 64.9437C56.7829 64.0508 57.5277 62.9774 58.0359 61.7886V59.8116H52.5889V66.9829Z" fill="#F28F8F"/>
<path d="M51.2024 50.0506C51.2024 50.0506 45.7553 50.3669 46.4288 59.6584C46.7407 63.9582 47.746 66.1823 51.0637 66.0192C54.8172 65.8363 60.1504 63.2564 59.8038 55.9072C59.4571 48.5581 51.2024 50.0506 51.2024 50.0506Z" fill="#FFA8A7"/>
<path d="M58.5411 59.7918C58.5411 59.7918 57.0555 60.1823 57.0555 58.0472C57.0555 58.0472 50.42 57.6024 48.9542 51.0292C48.9542 51.0292 49.6079 49.0522 53.7526 49.0522C57.8973 49.0522 61.3735 52.7095 60.294 57.7309L58.5411 59.7918Z" fill="#263238"/>
<path d="M50.42 57.7952V60.9879L48.5432 60.4146L50.42 57.7952Z" fill="#F28F8F"/>
<path d="M53.2376 58.1362C53.2233 58.2988 53.1486 58.4502 53.028 58.5604C52.9075 58.6707 52.7499 58.7319 52.5864 58.7319C52.4229 58.7319 52.2653 58.6707 52.1447 58.5604C52.0242 58.4502 51.9494 58.2988 51.9352 58.1362C51.9273 58.0461 51.9383 57.9553 51.9675 57.8697C51.9966 57.784 52.0433 57.7054 52.1045 57.6387C52.1657 57.572 52.2402 57.5188 52.3232 57.4823C52.4061 57.4459 52.4958 57.4271 52.5864 57.4271C52.677 57.4271 52.7667 57.4459 52.8496 57.4823C52.9326 57.5188 53.007 57.572 53.0683 57.6387C53.1295 57.7054 53.1762 57.784 53.2053 57.8697C53.2345 57.9553 53.2454 58.0461 53.2376 58.1362V58.1362Z" fill="#263238"/>
<path d="M48.9493 57.6815C48.9493 57.8108 48.9108 57.9371 48.8387 58.0445C48.7667 58.1519 48.6643 58.2355 48.5446 58.2847C48.4249 58.3339 48.2932 58.3466 48.1663 58.321C48.0393 58.2954 47.9229 58.2328 47.8317 58.141C47.7405 58.0493 47.6786 57.9326 47.6539 57.8057C47.6293 57.6789 47.6429 57.5475 47.6932 57.4284C47.7434 57.3093 47.8279 57.2078 47.9361 57.1367C48.0442 57.0656 48.1711 57.0282 48.3006 57.0291C48.4731 57.0304 48.6381 57.0997 48.7596 57.2219C48.8811 57.3442 48.9493 57.5093 48.9493 57.6815Z" fill="#263238"/>
<path d="M47.5033 56.3273L48.7809 55.5711C48.7809 55.5711 48.2857 55.0769 47.7905 55.3685C47.6518 55.4811 47.5502 55.6328 47.499 55.8038C47.4478 55.9748 47.4493 56.1572 47.5033 56.3273V56.3273Z" fill="#263238"/>
<path d="M50.5784 62.0505C51.3216 62.1011 52.0605 61.9028 52.678 61.4871C52.678 61.4871 52.8216 62.5892 51.8907 62.8017C51.6186 62.8481 51.3388 62.7985 51.0993 62.6614C50.8599 62.5243 50.6757 62.3083 50.5784 62.0505V62.0505Z" fill="#F28F8F"/>
<path d="M58.0063 60.034C57.9831 59.4932 58.083 58.9542 58.2984 58.4575C58.4023 58.1475 58.5953 57.875 58.8533 57.6737C59.1113 57.4725 59.4229 57.3514 59.7493 57.3257C61.4181 57.2762 61.6459 58.8874 61.6211 59.4558C61.5617 60.9385 60.3436 62.5843 58.0756 62.6436L58.0063 60.034Z" fill="#FFA8A7"/>
<path d="M52.5889 66.9829L50.831 69.2613C50.6336 69.5173 50.4947 69.8133 50.4241 70.1286C50.3534 70.4438 50.3528 70.7707 50.4221 71.0862C50.4915 71.4017 50.6292 71.6983 50.8256 71.9551C51.022 72.2118 51.2722 72.4226 51.5589 72.5726V72.5726C52.3381 72.9805 53.2353 73.1049 54.0964 72.9246C54.9575 72.7442 55.7288 72.2703 56.278 71.5842L58.541 68.7621L52.5889 66.9829Z" fill="#FFA8A7"/>
<path d="M52.5592 94.3879L47.6074 97.0913C46.8459 97.0321 46.081 97.0321 45.3196 97.0913C44.4382 97.1951 42.1009 97.6251 41.4967 97.6498C40.8926 97.6745 41.4967 98.8014 43.0566 98.7025C43.0566 98.7025 39.4863 100.333 39.3575 101.312C39.2288 102.291 42.2197 104.515 44.7155 103.289C45.3681 102.91 46.0695 102.623 46.8002 102.434C48.3406 102.22 49.7747 101.528 50.9003 100.457L55.0352 99.1276C55.0352 99.1276 56.902 94.8129 52.5592 94.3879Z" fill="#FFA8A7"/>
<path d="M62.3342 70.3783C62.3342 70.3783 59.3136 72.459 59.8186 78.8691C60.1209 82.7562 60.1209 86.6607 59.8186 90.5478L52.5592 94.3879C53.3389 94.9054 53.9748 95.6113 54.4077 96.44C54.8406 97.2687 55.0565 98.1933 55.0351 99.1276C55.0351 99.1276 65.4737 96.9826 66.0976 94.556C66.7216 92.1293 66.9493 80.5199 66.9493 78.5034C66.9493 76.4869 66.1273 71.9895 62.3342 70.3783Z" fill="#BA68C8"/>
<path opacity="0.3" d="M62.3342 70.3783C62.3342 70.3783 59.3136 72.459 59.8186 78.8691C60.1209 82.7562 60.1209 86.6607 59.8186 90.5478L52.5592 94.3879C53.3389 94.9054 53.9748 95.6113 54.4077 96.44C54.8406 97.2687 55.0565 98.1933 55.0351 99.1276C55.0351 99.1276 65.4737 96.9826 66.0976 94.556C66.7216 92.1293 66.9493 80.5199 66.9493 78.5034C66.9493 76.4869 66.1273 71.9895 62.3342 70.3783Z" fill="white"/>
<path d="M59.8236 90.5478C60.6234 90.531 61.4184 90.6755 62.1609 90.9728C61.4929 90.4547 60.704 90.1146 59.8682 89.9843L59.8236 90.5478Z" fill="#BA68C8"/>
<path opacity="0.1" d="M59.8236 90.5478C60.6234 90.531 61.4184 90.6755 62.1609 90.9728C61.4929 90.4547 60.704 90.1146 59.8682 89.9843L59.8236 90.5478Z" fill="white"/>
<path d="M14.7566 83.0009L17.0245 97.8277L39.5803 110.88C39.5859 110.883 39.592 110.884 39.5981 110.884C39.6043 110.883 39.6102 110.881 39.6152 110.878C39.6203 110.874 39.6243 110.869 39.6268 110.864C39.6294 110.858 39.6304 110.852 39.6298 110.846L37.4262 96.4637C37.3785 96.1597 37.2653 95.8697 37.0943 95.6137C36.9233 95.3577 36.6986 95.1419 36.4359 94.981L15.7569 82.3337C15.6488 82.2682 15.5243 82.2348 15.398 82.2376C15.2716 82.2403 15.1487 82.279 15.0436 82.349C14.9386 82.4191 14.8557 82.5177 14.8049 82.6332C14.754 82.7487 14.7373 82.8762 14.7566 83.0009V83.0009Z" fill="#455A64"/>
<path d="M39.5952 110.91L51.6381 103.946C51.917 103.787 52.1487 103.556 52.3096 103.279C52.4705 103.001 52.5549 102.686 52.5542 102.365V102.365L39.4962 109.892L39.5952 110.91Z" fill="#263238"/>
<path d="M27.7998 97.294C27.7998 98.3516 27.057 98.7767 26.136 98.2528C25.652 97.9373 25.2492 97.5125 24.9601 97.0128C24.6711 96.5131 24.5039 95.9525 24.4722 95.3764C24.4722 94.3187 25.2199 93.8937 26.136 94.4176C26.6205 94.7325 27.0238 95.1572 27.3129 95.657C27.602 96.1568 27.7688 96.7177 27.7998 97.294V97.294Z" fill="#37474F"/>
<path opacity="0.2" d="M50.0139 82.2348C50.0139 82.2348 54.5647 83.4704 56.9812 80.0553C56.9812 80.0553 55.4164 84.4638 50.0139 82.2348Z" fill="black"/>
</svg>
