<svg width="55" height="55" viewBox="0 0 55 55" fill="none" xmlns="http://www.w3.org/2000/svg">
<path d="M27.5 4.58334C14.8385 4.58334 4.58334 14.8385 4.58334 27.5C4.58334 40.1615 14.8385 50.4167 27.5 50.4167C40.1615 50.4167 50.4167 40.1615 50.4167 27.5C50.4167 14.8385 40.1615 4.58334 27.5 4.58334ZM27.5 37.8125C21.8052 37.8125 17.1875 33.1948 17.1875 27.5C17.1875 21.8052 21.8052 17.1875 27.5 17.1875C33.1948 17.1875 37.8125 21.8052 37.8125 27.5C37.8125 33.1948 33.1948 37.8125 27.5 37.8125ZM27.5 25.2083C26.2396 25.2083 25.2083 26.2396 25.2083 27.5C25.2083 28.7604 26.2396 29.7917 27.5 29.7917C28.7604 29.7917 29.7917 28.7604 29.7917 27.5C29.7917 26.2396 28.7604 25.2083 27.5 25.2083Z" fill="#929292"/>
</svg>
