<svg width="74" height="88" viewBox="0 0 74 88" fill="none" xmlns="http://www.w3.org/2000/svg">
<circle cx="38" cy="20" r="15.5" stroke="#929292" stroke-width="9"/>
<path d="M6 84L68 84" stroke="#929292" stroke-width="8"/>
<path d="M5 83V67.8333V67.8333C5 59.1172 11.3798 51.7141 20.0004 50.427L27.5972 49.2928C33.3392 48.4355 39.1753 48.4161 44.9229 49.2352L53.9851 50.5268C62.5999 51.7545 69 59.1315 69 67.8333V67.8333V83" stroke="#929292" stroke-width="9"/>
<path d="M73 82.5C73 85.5376 70.5376 88 67.5 88C64.4624 88 66 85.5376 66 82.5C66 79.4624 64.4624 77 67.5 77C70.5376 77 73 79.4624 73 82.5Z" fill="#929292"/>
<path d="M8.5 82.5C8.5 85.5376 9.53757 88 6.5 88C3.46243 88 1 85.5376 1 82.5C1 79.4624 3.46243 77 6.5 77C9.53757 77 8.5 79.4624 8.5 82.5Z" fill="#929292"/>
</svg>
