<svg width="56" height="69" viewBox="0 0 56 69" fill="none" xmlns="http://www.w3.org/2000/svg">
<path d="M39.0826 17.6061C39.0826 18.2448 39.039 18.8835 38.9592 19.5149C38.9955 19.2609 39.0317 18.9996 39.0608 18.7456C38.8866 20.0085 38.5527 21.2351 38.0664 22.4109C38.1608 22.1786 38.2624 21.9464 38.3568 21.7141C37.8705 22.8609 37.2463 23.935 36.4842 24.9221C36.6366 24.7262 36.789 24.5302 36.9415 24.3342C36.1866 25.3068 35.3084 26.185 34.3358 26.9398C34.5318 26.7874 34.7278 26.635 34.9237 26.4826C33.9367 27.2374 32.8625 27.8689 31.7157 28.3551C31.948 28.2608 32.1802 28.1592 32.4125 28.0648C31.2367 28.5511 30.0101 28.885 28.7472 29.0592C29.0012 29.0229 29.2625 28.9866 29.5165 28.9576C28.2464 29.1245 26.969 29.1245 25.6988 28.9576C25.9529 28.9939 26.2142 29.0301 26.4682 29.0592C25.2053 28.885 23.9787 28.5511 22.8029 28.0648C23.0352 28.1592 23.2674 28.2608 23.4997 28.3551C22.3529 27.8689 21.2787 27.2447 20.2917 26.4826C20.4876 26.635 20.6836 26.7874 20.8796 26.9398C19.907 26.185 19.0288 25.3068 18.2739 24.3342C18.4264 24.5302 18.5788 24.7262 18.7312 24.9221C17.9764 23.935 17.3449 22.8609 16.8586 21.7141C16.953 21.9464 17.0546 22.1786 17.149 22.4109C16.6627 21.2351 16.3288 20.0085 16.1546 18.7456C16.1909 18.9996 16.2272 19.2609 16.2562 19.5149C16.0893 18.2448 16.0893 16.9674 16.2562 15.6972C16.2199 15.9513 16.1836 16.2126 16.1546 16.4666C16.3288 15.2037 16.6627 13.9771 17.149 12.8013C17.0546 13.0336 16.953 13.2658 16.8586 13.4981C17.3449 12.3513 17.9691 11.2771 18.7312 10.29C18.5788 10.486 18.4264 10.682 18.2739 10.8779C19.0288 9.90537 19.907 9.02716 20.8796 8.27233C20.6836 8.42474 20.4876 8.57716 20.2917 8.72958C21.2787 7.97475 22.3529 7.3433 23.4997 6.85702C23.2674 6.95137 23.0352 7.05299 22.8029 7.14734C23.9787 6.66105 25.2053 6.32719 26.4682 6.153C26.2142 6.18929 25.9529 6.22558 25.6988 6.25461C26.969 6.08767 28.2464 6.08767 29.5165 6.25461C29.2625 6.21832 29.0012 6.18203 28.7472 6.153C30.0101 6.32719 31.2367 6.66105 32.4125 7.14734C32.1802 7.05299 31.948 6.95137 31.7157 6.85702C32.8625 7.3433 33.9367 7.96749 34.9237 8.72958C34.7278 8.57716 34.5318 8.42474 34.3358 8.27233C35.3084 9.02716 36.1866 9.90537 36.9415 10.8779C36.789 10.682 36.6366 10.486 36.4842 10.29C37.239 11.2771 37.8705 12.3513 38.3568 13.4981C38.2624 13.2658 38.1608 13.0336 38.0664 12.8013C38.5527 13.9771 38.8866 15.2037 39.0608 16.4666C39.0245 16.2126 38.9882 15.9513 38.9592 15.6972C39.039 16.3287 39.0753 16.9674 39.0826 17.6061C39.0898 19.123 40.4108 20.5819 41.9857 20.5093C43.5535 20.4367 44.8962 19.2319 44.8889 17.6061C44.8744 14.1295 43.8293 10.5731 41.7825 7.74249C41.2309 6.98041 40.643 6.23283 39.9898 5.55784C39.3293 4.87559 38.6035 4.2877 37.8487 3.71432C36.4769 2.66917 34.9455 1.89982 33.3197 1.30467C26.7658 -1.09772 18.8618 1.04338 14.4272 6.44331C13.8175 7.18363 13.2369 7.95297 12.7434 8.78038C12.2498 9.60054 11.8651 10.4715 11.5095 11.357C10.8418 12.9973 10.5006 14.7392 10.3627 16.5029C10.0942 19.9577 10.9942 23.5649 12.7942 26.5261C14.5288 29.3858 17.149 31.839 20.2118 33.2253C21.1118 33.6317 22.0336 34.0091 22.9916 34.2777C23.9424 34.5389 24.9077 34.6841 25.8876 34.8002C27.673 35.0107 29.4948 34.8656 31.2585 34.5099C37.9576 33.1454 43.568 27.3753 44.6059 20.6036C44.7583 19.6165 44.8744 18.6295 44.8744 17.6279C44.8817 16.1109 43.5317 14.6521 41.9712 14.7247C40.4035 14.7755 39.0826 15.9803 39.0826 17.6061ZM48.7139 62.9902C47.2913 62.9902 45.8688 62.9902 44.4462 62.9902C41.0567 62.9902 37.6745 62.9902 34.285 62.9902C30.2061 62.9902 26.1271 62.9902 22.0408 62.9902C18.5207 62.9902 15.0006 62.9902 11.4732 62.9902C9.82565 62.9902 8.17809 63.0047 6.53053 62.9902C6.34908 62.9902 6.16763 62.9757 5.99344 62.9539C6.24747 62.9902 6.50876 63.0265 6.76279 63.0555C6.47247 63.012 6.19666 62.9322 5.92812 62.8233C6.16037 62.9176 6.39263 63.0193 6.62488 63.1136C6.33456 62.9902 6.06602 62.8305 5.81199 62.6346C6.00796 62.787 6.20392 62.9394 6.39989 63.0918C6.18215 62.9104 5.97892 62.7144 5.80473 62.4967C5.95715 62.6926 6.10957 62.8886 6.26198 63.0846C6.06602 62.8305 5.9136 62.562 5.78296 62.2717C5.87731 62.5039 5.97892 62.7362 6.07328 62.9684C5.96441 62.6999 5.89183 62.4168 5.84102 62.1338C5.87731 62.3878 5.9136 62.6491 5.94263 62.9031C5.82651 62.0249 5.90634 61.0959 5.90634 60.2104C5.90634 59.1725 5.90634 58.1419 5.90634 57.104C5.90634 56.3274 5.94989 55.5581 6.0515 54.7887C6.01521 55.0427 5.97892 55.304 5.94989 55.558C6.15312 54.0702 6.54505 52.6113 7.13294 51.225C7.03859 51.4573 6.93698 51.6895 6.84262 51.9218C7.40874 50.6009 8.13454 49.3597 9.01276 48.2202C8.86034 48.4162 8.70792 48.6122 8.55551 48.8081C9.43372 47.6831 10.4426 46.667 11.5748 45.7888C11.3789 45.9412 11.1829 46.0936 10.9869 46.2461C12.1264 45.3678 13.3675 44.642 14.6885 44.0759C14.4562 44.1703 14.224 44.2719 13.9917 44.3662C15.378 43.7856 16.8296 43.3864 18.3247 43.1832C18.0707 43.2195 17.8094 43.2558 17.5554 43.2848C18.6296 43.1469 19.6965 43.1397 20.7779 43.1397C22.1061 43.1397 23.4344 43.1397 24.7626 43.1397C27.8617 43.1397 30.9609 43.1397 34.06 43.1397C35.2576 43.1397 36.4479 43.1324 37.6455 43.2848C37.3914 43.2485 37.1302 43.2122 36.8761 43.1832C38.364 43.3864 39.8229 43.7784 41.2091 44.3662C40.9769 44.2719 40.7446 44.1703 40.5124 44.0759C41.8333 44.642 43.0744 45.3678 44.2139 46.2461C44.018 46.0936 43.822 45.9412 43.6261 45.7888C44.751 46.667 45.7672 47.6759 46.6454 48.8081C46.4929 48.6122 46.3405 48.4162 46.1881 48.2202C47.0663 49.3597 47.7921 50.6009 48.3583 51.9218C48.2639 51.6895 48.1623 51.4573 48.0679 51.225C48.6486 52.6113 49.0478 54.0629 49.251 55.558C49.2147 55.304 49.1784 55.0427 49.1494 54.7887C49.2873 55.8847 49.2945 56.9734 49.2945 58.0766C49.2945 59.2741 49.2945 60.4717 49.2945 61.6693C49.2945 62.083 49.309 62.4967 49.2582 62.9031C49.2945 62.6491 49.3308 62.3878 49.3599 62.1338C49.3163 62.4241 49.2365 62.6999 49.1276 62.9684C49.2219 62.7362 49.3236 62.5039 49.4179 62.2717C49.2945 62.562 49.1349 62.8305 48.9389 63.0846C49.0913 62.8886 49.2437 62.6926 49.3961 62.4967C49.2147 62.7144 49.0187 62.9176 48.801 63.0918C48.997 62.9394 49.1929 62.787 49.3889 62.6346C49.1349 62.8305 48.8663 62.983 48.576 63.1136C48.8082 63.0193 49.0405 62.9176 49.2728 62.8233C49.0042 62.9322 48.7211 63.0047 48.4381 63.0555C48.6921 63.0192 48.9534 62.983 49.2074 62.9539C49.0478 62.9757 48.8808 62.983 48.7139 62.9902C47.9663 62.9975 47.197 63.3096 46.6599 63.8394C46.1591 64.3402 45.7744 65.1676 45.8107 65.8934C45.8833 67.4466 47.0881 68.8184 48.7139 68.7966C51.5372 68.7531 54.0195 66.9095 54.8469 64.2023C55.1735 63.1281 55.1009 61.9741 55.1009 60.8709C55.1009 58.3451 55.1808 55.8411 54.7453 53.3371C54.1066 49.6718 52.263 46.2243 49.7373 43.5171C47.2115 40.8098 43.8148 38.8212 40.2221 37.9357C38.1608 37.4276 36.085 37.3478 33.9802 37.3478C31.8173 37.3478 29.6617 37.3478 27.4988 37.3478C25.365 37.3478 23.2384 37.3478 21.1045 37.3478C18.9489 37.3478 16.8078 37.4494 14.7103 38.0083C11.1466 38.9518 7.79342 40.9623 5.31845 43.6913C2.8217 46.442 1.01447 49.8968 0.426571 53.5839C0.0346405 56.0588 0.114478 58.5411 0.114478 61.0378C0.114478 62.1846 0.0491565 63.3822 0.462861 64.4781C0.999951 65.8862 1.85639 66.9966 3.11202 67.8313C4.09185 68.4773 5.33296 68.7893 6.49424 68.8039C7.06036 68.8111 7.62648 68.8039 8.19261 68.8039C9.6442 68.8039 11.0885 68.8039 12.5401 68.8039C14.6014 68.8039 16.6554 68.8039 18.7167 68.8039C21.1118 68.8039 23.5069 68.8039 25.9021 68.8039C28.3625 68.8039 30.8157 68.8039 33.2762 68.8039C35.5261 68.8039 37.7689 68.8039 40.0188 68.8039C41.7825 68.8039 43.5462 68.8039 45.3026 68.8039C46.3115 68.8039 47.3204 68.8039 48.3292 68.8039C48.4599 68.8039 48.5905 68.8039 48.7212 68.8039C50.2381 68.8039 51.6969 67.4684 51.6243 65.9007C51.5518 64.3184 50.3469 62.9902 48.7139 62.9902Z" fill="#929292"/>
</svg>
