<svg width="55" height="55" viewBox="0 0 55 55" fill="none" xmlns="http://www.w3.org/2000/svg">
<path d="M54.7426 1.65C54.7426 1.65 54.7426 1.485 54.5776 1.375C54.4369 1.14624 54.2709 0.93407 54.0827 0.7425V0.7425L53.8078 0.605C53.6221 0.452312 53.4068 0.33993 53.1754 0.275H52.7355C52.5816 0.164697 52.4155 0.0724273 52.2406 0H52.0206H51.8281L16.0846 5.5H15.6997L15.3147 5.6375C15.1302 5.71489 14.9622 5.82691 14.8198 5.9675L14.4899 6.215C14.355 6.38759 14.2354 6.57162 14.1324 6.765L13.94 7.0675C13.8017 7.44597 13.7364 7.84721 13.7475 8.25V36.7125C12.4629 36.0849 11.053 35.7559 9.62326 35.75C7.71996 35.75 5.8594 36.3145 4.27687 37.3721C2.69433 38.4297 1.46089 39.9329 0.732531 41.6917C0.0041696 43.4504 -0.186403 45.3857 0.184913 47.2527C0.556228 49.1198 1.47275 50.8348 2.81859 52.1809C4.16443 53.527 5.87913 54.4437 7.74586 54.8151C9.61259 55.1864 11.5475 54.9958 13.3059 54.2673C15.0643 53.5388 16.5673 52.3052 17.6247 50.7224C18.6821 49.1395 19.2465 47.2786 19.2465 45.375C19.2465 45.0725 19.2465 44.77 19.2465 44.4675C19.2598 44.3119 19.2598 44.1555 19.2465 44V24.365L49.491 19.7175V31.2125C48.2064 30.5849 46.7965 30.2559 45.3668 30.25C43.4635 30.25 41.6029 30.8145 40.0204 31.8721C38.4379 32.9297 37.2044 34.4329 36.4761 36.1917C35.7477 37.9504 35.5571 39.8857 35.9284 41.7527C36.2998 43.6198 37.2163 45.3348 38.5621 46.6809C39.908 48.027 41.6227 48.9437 43.4894 49.3151C45.3561 49.6864 47.291 49.4958 49.0495 48.7673C50.8079 48.0388 52.3108 46.8052 53.3682 45.2224C54.4257 43.6395 54.9901 41.7786 54.9901 39.875C54.9901 39.5725 54.9901 39.27 54.9901 38.9675C55.0033 38.8119 55.0033 38.6555 54.9901 38.5V2.75C54.9933 2.36917 54.9086 1.99274 54.7426 1.65V1.65ZM9.62326 49.5C8.80756 49.5 8.01018 49.2581 7.33195 48.8048C6.65372 48.3515 6.1251 47.7073 5.81295 46.9536C5.50079 46.1998 5.41912 45.3704 5.57826 44.5702C5.73739 43.7701 6.13019 43.0351 6.70697 42.4582C7.28376 41.8813 8.01863 41.4884 8.81866 41.3293C9.61869 41.1701 10.4479 41.2518 11.2015 41.564C11.9552 41.8762 12.5993 42.4049 13.0525 43.0833C13.5056 43.7616 13.7475 44.5591 13.7475 45.375C13.7475 46.469 13.313 47.5182 12.5396 48.2918C11.7661 49.0654 10.7171 49.5 9.62326 49.5ZM19.2465 18.7825V10.5325L49.491 5.9675V14.2175L19.2465 18.7825ZM45.3668 44C44.5511 44 43.7537 43.7581 43.0755 43.3048C42.3973 42.8515 41.8686 42.2073 41.5565 41.4536C41.2443 40.6998 41.1627 39.8704 41.3218 39.0703C41.4809 38.2701 41.8737 37.5351 42.4505 36.9582C43.0273 36.3813 43.7622 35.9884 44.5622 35.8293C45.3622 35.6701 46.1915 35.7518 46.9451 36.064C47.6987 36.3762 48.3428 36.9049 48.796 37.5833C49.2492 38.2616 49.491 39.0591 49.491 39.875C49.491 40.969 49.0565 42.0182 48.2831 42.7918C47.5096 43.5654 46.4606 44 45.3668 44Z" fill="#929292"/>
</svg>
